<svg width="166" height="86" viewBox="0 0 166 86" fill="none" xmlns="http://www.w3.org/2000/svg">
<rect x="9" y="9" width="104" height="44" rx="2" fill="#0067C5" fill-opacity="0.0992679" stroke="#0067C5" stroke-opacity="0.158927"/>
<rect x="120" y="9" width="45" height="76" rx="2" fill="#0067C5" fill-opacity="0.0992679" stroke="#0067C5" stroke-opacity="0.158927"/>
<rect x="9" y="60" width="104" height="9" rx="2" fill="#0067C5" fill-opacity="0.0992679" stroke="#0067C5" stroke-opacity="0.158927"/>
<rect x="9" y="76" width="94" height="9" rx="2" fill="#0067C5" fill-opacity="0.0992679" stroke="#0067C5" stroke-opacity="0.158927"/>
<circle cx="13.5" cy="13.5" r="13.5" fill="white"/>
<path d="M13.4997 2.25024C16.704 2.32067 19.3624 3.41222 21.4751 5.52489C23.5878 7.63757 24.6793 10.296 24.7497 13.5002C24.6793 16.7045 23.5878 19.3629 21.4751 21.4756C19.3624 23.5883 16.704 24.6798 13.4997 24.7502C10.2955 24.6798 7.63706 23.5883 5.52439 21.4756C3.41171 19.3629 2.32016 16.7045 2.24974 13.5002C2.32016 10.296 3.41171 7.63757 5.52439 5.52489C7.63706 3.41222 10.2955 2.32067 13.4997 2.25024ZM17.5666 7.84884L13.4997 11.9157L9.43284 7.84884L7.84833 9.43334L11.9152 13.5002L7.84833 17.5671L9.43284 19.1517L13.4997 15.0848L17.5666 19.1517L19.1511 17.5671L15.0842 13.5002L19.1511 9.43334L17.5666 7.84884Z" fill="#DA1E21"/>
</svg>
