<svg width="147" height="93" viewBox="0 0 147 93" fill="none" xmlns="http://www.w3.org/2000/svg">
<g clip-path="url(#clip0)">
<rect x="28.7832" y="24.2857" width="59.6224" height="4.57143" fill="#EDF6FF"/>
<rect x="29.2832" y="24.7857" width="58.6224" height="3.57143" stroke="#0067C5" stroke-opacity="0.123853"/>
<rect y="24.2857" width="22.6154" height="4.57143" fill="#EDF6FF"/>
<rect x="0.5" y="24.7857" width="21.6154" height="3.57143" stroke="#0067C5" stroke-opacity="0.123853"/>
<rect x="104.853" y="24.2857" width="42.1469" height="4.57143" fill="#EDF6FF"/>
<rect x="105.353" y="24.7857" width="41.1469" height="3.57143" stroke="#0067C5" stroke-opacity="0.123853"/>
<rect x="28.7832" y="65.4286" width="59.6224" height="4.57143" fill="#EDF6FF"/>
<rect x="29.2832" y="65.9286" width="58.6224" height="3.57143" stroke="#0067C5" stroke-opacity="0.123853"/>
<rect y="65.4286" width="22.6154" height="4.57143" fill="#EDF6FF"/>
<rect x="0.5" y="65.9286" width="21.6154" height="3.57143" stroke="#0067C5" stroke-opacity="0.123853"/>
<rect x="104.853" y="65.4286" width="42.1469" height="4.57143" fill="#EDF6FF"/>
<rect x="105.353" y="65.9286" width="41.1469" height="3.57143" stroke="#0067C5" stroke-opacity="0.123853"/>
<rect x="28.7406" y="38" width="69.7987" height="4.57143" fill="#EDF6FF"/>
<rect x="29.2406" y="38.5" width="68.7987" height="3.57143" stroke="#0067C5" stroke-opacity="0.123853"/>
<rect y="38" width="15.3968" height="4.57143" fill="#EDF6FF"/>
<rect x="0.5" y="38.5" width="14.3968" height="3.57143" stroke="#0067C5" stroke-opacity="0.123853"/>
<rect x="104.698" y="38" width="29.7671" height="4.57143" fill="#EDF6FF"/>
<rect x="105.198" y="38.5" width="28.7671" height="3.57143" stroke="#0067C5" stroke-opacity="0.123853"/>
<rect x="28.7406" y="79.1428" width="69.7987" height="4.57143" fill="#EDF6FF"/>
<rect x="29.2406" y="79.6428" width="68.7987" height="3.57143" stroke="#0067C5" stroke-opacity="0.123853"/>
<rect y="79.1428" width="15.3968" height="4.57143" fill="#EDF6FF"/>
<rect x="0.5" y="79.6428" width="14.3968" height="3.57143" stroke="#0067C5" stroke-opacity="0.123853"/>
<rect x="104.698" y="79.1428" width="29.7671" height="4.57143" fill="#EDF6FF"/>
<rect x="105.198" y="79.6428" width="28.7671" height="3.57143" stroke="#0067C5" stroke-opacity="0.123853"/>
<rect x="28.6933" y="51.7143" width="52.2628" height="4.57143" fill="#EDF6FF"/>
<rect x="29.1933" y="52.2143" width="51.2628" height="3.57143" stroke="#0067C5" stroke-opacity="0.123853"/>
<rect y="51.7143" width="19.4705" height="4.57143" fill="#EDF6FF"/>
<rect x="0.5" y="52.2143" width="18.4705" height="3.57143" stroke="#0067C5" stroke-opacity="0.123853"/>
<rect x="104.526" y="51.7143" width="37.9162" height="4.57143" fill="#EDF6FF"/>
<rect x="105.026" y="52.2143" width="36.9162" height="3.57143" stroke="#0067C5" stroke-opacity="0.123853"/>
</g>
<defs>
<clipPath id="clip0">
<rect width="147" height="93" fill="white"/>
</clipPath>
</defs>
</svg>
